<?xml version="1.0" encoding="UTF-8"?>
<!-- Do not edit this file with editors other than draw.io -->
<!DOCTYPE svg PUBLIC "-//W3C//DTD SVG 1.1//EN" "http://www.w3.org/Graphics/SVG/1.1/DTD/svg11.dtd">
<svg xmlns="http://www.w3.org/2000/svg" xmlns:xlink="http://www.w3.org/1999/xlink" version="1.1" width="145px" height="272px" viewBox="-0.5 -0.5 145 272" content="&lt;mxfile host=&quot;Electron&quot; agent=&quot;Mozilla/5.0 (Windows NT 10.0; Win64; x64) AppleWebKit/537.36 (KHTML, like Gecko) draw.io/24.7.17 Chrome/128.0.6613.36 Electron/32.0.1 Safari/537.36&quot; version=&quot;24.7.17&quot;&gt;&#10;  &lt;diagram id=&quot;FBozWONBrBzCR3XHtYKA&quot; name=&quot;Page-1&quot;&gt;&#10;    &lt;mxGraphModel dx=&quot;658&quot; dy=&quot;486&quot; grid=&quot;0&quot; gridSize=&quot;10&quot; guides=&quot;1&quot; tooltips=&quot;1&quot; connect=&quot;1&quot; arrows=&quot;1&quot; fold=&quot;1&quot; page=&quot;1&quot; pageScale=&quot;1&quot; pageWidth=&quot;1169&quot; pageHeight=&quot;827&quot; math=&quot;0&quot; shadow=&quot;0&quot;&gt;&#10;      &lt;root&gt;&#10;        &lt;mxCell id=&quot;0&quot; /&gt;&#10;        &lt;mxCell id=&quot;1&quot; parent=&quot;0&quot; /&gt;&#10;        &lt;mxCell id=&quot;LPJZop9QfARrYuiBAiY1-2&quot; value=&quot;output &amp;quot;Hello&amp;quot;&quot; style=&quot;rounded=1;whiteSpace=wrap;html=1;absoluteArcSize=1;arcSize=50;strokeWidth=1;shadow=0;comic=1;&quot; parent=&quot;1&quot; vertex=&quot;1&quot;&gt;&#10;          &lt;mxGeometry x=&quot;37&quot; y=&quot;180&quot; width=&quot;110&quot; height=&quot;40&quot; as=&quot;geometry&quot; /&gt;&#10;        &lt;/mxCell&gt;&#10;        &lt;mxCell id=&quot;LPJZop9QfARrYuiBAiY1-3&quot; value=&quot;&quot; style=&quot;edgeStyle=orthogonalEdgeStyle;rounded=0;orthogonalLoop=1;jettySize=auto;html=1;comic=1;&quot; parent=&quot;1&quot; source=&quot;LPJZop9QfARrYuiBAiY1-7&quot; target=&quot;LPJZop9QfARrYuiBAiY1-2&quot; edge=&quot;1&quot;&gt;&#10;          &lt;mxGeometry relative=&quot;1&quot; as=&quot;geometry&quot;&gt;&#10;            &lt;mxPoint x=&quot;162&quot; y=&quot;80&quot; as=&quot;sourcePoint&quot; /&gt;&#10;          &lt;/mxGeometry&gt;&#10;        &lt;/mxCell&gt;&#10;        &lt;mxCell id=&quot;LPJZop9QfARrYuiBAiY1-5&quot; value=&quot;&quot; style=&quot;edgeStyle=orthogonalEdgeStyle;rounded=0;orthogonalLoop=1;jettySize=auto;html=1;comic=1;&quot; parent=&quot;1&quot; source=&quot;LPJZop9QfARrYuiBAiY1-9&quot; target=&quot;GjajPZ4e6OUNxmuzYYEo-2&quot; edge=&quot;1&quot;&gt;&#10;          &lt;mxGeometry relative=&quot;1&quot; as=&quot;geometry&quot;&gt;&#10;            &lt;mxPoint x=&quot;91.5&quot; y=&quot;310&quot; as=&quot;targetPoint&quot; /&gt;&#10;          &lt;/mxGeometry&gt;&#10;        &lt;/mxCell&gt;&#10;        &lt;mxCell id=&quot;LPJZop9QfARrYuiBAiY1-6&quot; value=&quot;&amp;lt;font style=&amp;quot;font-size: 25px ; line-height: 60%&amp;quot;&amp;gt;A&amp;lt;/font&amp;gt;&quot; style=&quot;whiteSpace=wrap;html=1;aspect=fixed;rounded=0;shadow=0;comic=1;strokeWidth=1;fillColor=#FFFFFF;shape=ellipse;labelBackgroundColor=none;strokeColor=#000000;fontFamily=Verdana;fontColor=#000000;perimeter=ellipsePerimeter;&quot; parent=&quot;1&quot; vertex=&quot;1&quot;&gt;&#10;          &lt;mxGeometry x=&quot;76.5&quot; y=&quot;64.5&quot; width=&quot;31&quot; height=&quot;31&quot; as=&quot;geometry&quot; /&gt;&#10;        &lt;/mxCell&gt;&#10;        &lt;mxCell id=&quot;LPJZop9QfARrYuiBAiY1-11&quot; value=&quot;[ x &amp;amp;gt; 1 ]&quot; style=&quot;edgeStyle=orthogonalEdgeStyle;rounded=0;comic=1;orthogonalLoop=1;jettySize=auto;html=1;verticalAlign=bottom;&quot; parent=&quot;1&quot; source=&quot;LPJZop9QfARrYuiBAiY1-7&quot; target=&quot;LPJZop9QfARrYuiBAiY1-9&quot; edge=&quot;1&quot;&gt;&#10;          &lt;mxGeometry x=&quot;-0.7051&quot; relative=&quot;1&quot; as=&quot;geometry&quot;&gt;&#10;            &lt;Array as=&quot;points&quot;&gt;&#10;              &lt;mxPoint x=&quot;172&quot; y=&quot;136&quot; /&gt;&#10;              &lt;mxPoint x=&quot;172&quot; y=&quot;266&quot; /&gt;&#10;            &lt;/Array&gt;&#10;            &lt;mxPoint as=&quot;offset&quot; /&gt;&#10;          &lt;/mxGeometry&gt;&#10;        &lt;/mxCell&gt;&#10;        &lt;mxCell id=&quot;LPJZop9QfARrYuiBAiY1-7&quot; value=&quot;&quot; style=&quot;rhombus;whiteSpace=wrap;html=1;rounded=0;shadow=0;glass=0;comic=1;strokeColor=#000000;align=left;&quot; parent=&quot;1&quot; vertex=&quot;1&quot;&gt;&#10;          &lt;mxGeometry x=&quot;76&quot; y=&quot;120&quot; width=&quot;32&quot; height=&quot;32&quot; as=&quot;geometry&quot; /&gt;&#10;        &lt;/mxCell&gt;&#10;        &lt;mxCell id=&quot;LPJZop9QfARrYuiBAiY1-8&quot; value=&quot;&quot; style=&quot;edgeStyle=orthogonalEdgeStyle;rounded=0;orthogonalLoop=1;jettySize=auto;html=1;comic=1;&quot; parent=&quot;1&quot; source=&quot;LPJZop9QfARrYuiBAiY1-6&quot; target=&quot;LPJZop9QfARrYuiBAiY1-7&quot; edge=&quot;1&quot;&gt;&#10;          &lt;mxGeometry relative=&quot;1&quot; as=&quot;geometry&quot;&gt;&#10;            &lt;mxPoint x=&quot;107.49736646488486&quot; y=&quot;80.28571428571433&quot; as=&quot;sourcePoint&quot; /&gt;&#10;            &lt;mxPoint x=&quot;202&quot; y=&quot;80.28571428571433&quot; as=&quot;targetPoint&quot; /&gt;&#10;          &lt;/mxGeometry&gt;&#10;        &lt;/mxCell&gt;&#10;        &lt;mxCell id=&quot;LPJZop9QfARrYuiBAiY1-9&quot; value=&quot;&quot; style=&quot;rhombus;whiteSpace=wrap;html=1;rounded=0;shadow=0;glass=0;comic=1;strokeColor=#000000;align=left;&quot; parent=&quot;1&quot; vertex=&quot;1&quot;&gt;&#10;          &lt;mxGeometry x=&quot;75.5&quot; y=&quot;250&quot; width=&quot;32&quot; height=&quot;32&quot; as=&quot;geometry&quot; /&gt;&#10;        &lt;/mxCell&gt;&#10;        &lt;mxCell id=&quot;LPJZop9QfARrYuiBAiY1-10&quot; value=&quot;&quot; style=&quot;edgeStyle=orthogonalEdgeStyle;rounded=0;orthogonalLoop=1;jettySize=auto;html=1;comic=1;&quot; parent=&quot;1&quot; source=&quot;LPJZop9QfARrYuiBAiY1-2&quot; target=&quot;LPJZop9QfARrYuiBAiY1-9&quot; edge=&quot;1&quot;&gt;&#10;          &lt;mxGeometry relative=&quot;1&quot; as=&quot;geometry&quot;&gt;&#10;            &lt;mxPoint x=&quot;312&quot; y=&quot;80.28571428571433&quot; as=&quot;sourcePoint&quot; /&gt;&#10;            &lt;mxPoint x=&quot;412.0028120464673&quot; y=&quot;80.28571428571433&quot; as=&quot;targetPoint&quot; /&gt;&#10;          &lt;/mxGeometry&gt;&#10;        &lt;/mxCell&gt;&#10;        &lt;mxCell id=&quot;GjajPZ4e6OUNxmuzYYEo-2&quot; value=&quot;&amp;lt;font style=&amp;quot;font-size: 25px ; line-height: 60%&amp;quot;&amp;gt;B&amp;lt;/font&amp;gt;&quot; style=&quot;ellipse;whiteSpace=wrap;html=1;aspect=fixed;rounded=0;shadow=0;comic=1;strokeWidth=1;fillColor=#FFFFFF;&quot; parent=&quot;1&quot; vertex=&quot;1&quot;&gt;&#10;          &lt;mxGeometry x=&quot;76&quot; y=&quot;303.5&quot; width=&quot;31&quot; height=&quot;31&quot; as=&quot;geometry&quot; /&gt;&#10;        &lt;/mxCell&gt;&#10;      &lt;/root&gt;&#10;    &lt;/mxGraphModel&gt;&#10;  &lt;/diagram&gt;&#10;&lt;/mxfile&gt;&#10;"><defs/><g><g data-cell-id="0"><g data-cell-id="1"><g data-cell-id="LPJZop9QfARrYuiBAiY1-2"><g><path d="M 20 116 L 20 116.8 L 30 116.22 L 40 115.04 L 50 116.59 L 60 116.7 L 70 116.53 L 80 116.96 L 90 116 Q 110 116 110 136 L 110 136 Q 110 156 90 156 L 90 156.44 L 80 155.45 L 70 156.19 L 60 156.54 L 50 155.58 L 40 156.86 L 30 156.55 L 20 156 Q 0 156 0 136 L 0 136 Q 0 116 20 116 L 20 116 Z Z" fill="rgb(255, 255, 255)" stroke="rgb(0, 0, 0)" stroke-linejoin="round" stroke-linecap="round" stroke-miterlimit="10" pointer-events="all"/></g><g><g transform="translate(-0.5 -0.5)"><switch><foreignObject pointer-events="none" width="100%" height="100%" requiredFeatures="http://www.w3.org/TR/SVG11/feature#Extensibility" style="overflow: visible; text-align: left;"><div xmlns="http://www.w3.org/1999/xhtml" style="display: flex; align-items: unsafe center; justify-content: unsafe center; width: 108px; height: 1px; padding-top: 136px; margin-left: 1px;"><div data-drawio-colors="color: rgb(0, 0, 0); " style="box-sizing: border-box; font-size: 0px; text-align: center;"><div style="display: inline-block; font-size: 12px; font-family: Helvetica; color: rgb(0, 0, 0); line-height: 1.2; pointer-events: all; white-space: normal; overflow-wrap: normal;">output "Hello"</div></div></div></foreignObject><text x="55" y="140" fill="rgb(0, 0, 0)" font-family="&quot;Helvetica&quot;" font-size="12px" text-anchor="middle">output "Hello"</text></switch></g></g></g><g data-cell-id="LPJZop9QfARrYuiBAiY1-3"><g><path d="M 55 88 L 54.69 88 L 54.78 92 L 55.22 96 L 55.13 100 L 55.28 104 L 55 108 L 55.28 108 L 54.81 105.6 L 54.97 103.2 L 54.79 100.8 L 55.26 98.4 L 55 96 L 55.25 96 L 55.07 98.73 L 55.11 101.45 L 54.8 104.18 L 54.68 106.91 L 55 109.63" fill="none" stroke="rgb(0, 0, 0)" stroke-linejoin="round" stroke-linecap="round" stroke-miterlimit="10" pointer-events="stroke"/><path d="M 55 114.88 L 55.28 115.02 L 54.2 113.43 L 53.51 112.04 L 52.67 110.57 L 51.98 109.17 L 51.5 107.88 L 51.52 107.92 L 52.33 108.49 L 52.75 108.28 L 53.57 108.88 L 54.4 109.49 L 55 109.63 L 55.12 109.87 L 55.65 109.18 L 56.41 108.95 L 56.96 108.31 L 57.91 108.46 L 58.5 107.88 L 58.3 107.78 L 57.82 109.29 L 56.84 110.55 L 56.46 112.11 L 55.46 113.36 L 55 114.88 Z Z" fill="rgb(0, 0, 0)" stroke="rgb(0, 0, 0)" stroke-linejoin="round" stroke-linecap="round" stroke-miterlimit="10" pointer-events="all"/></g></g><g data-cell-id="LPJZop9QfARrYuiBAiY1-5"><g><path d="M 54.52 217.98 L 54.68 217.98 L 54.49 221.99 L 54.55 225.99 L 54.33 229.99 L 54.75 234 L 54.52 238 L 54.56 238 L 54.22 234.3 L 54.78 230.61 L 54.3 226.91 L 54.36 223.21 L 54.52 219.52 L 54.48 219.52 L 54.48 222.24 L 54.3 224.96 L 54.83 227.69 L 54.39 230.41 L 54.51 233.13" fill="none" stroke="rgb(0, 0, 0)" stroke-linejoin="round" stroke-linecap="round" stroke-miterlimit="10" pointer-events="stroke"/><path d="M 54.5 238.38 L 54.72 238.49 L 53.78 236.97 L 53.38 235.72 L 52.55 234.25 L 51.81 232.83 L 51.01 231.38 L 50.88 231.12 L 51.75 231.81 L 52.26 231.79 L 53.06 232.33 L 53.91 232.99 L 54.51 233.13 L 54.55 233.23 L 55.07 232.52 L 55.93 232.48 L 56.51 231.9 L 57.21 231.55 L 58.01 231.39 L 58.29 231.53 L 57.4 232.83 L 56.81 234.29 L 56.09 235.68 L 55.03 236.9 L 54.5 238.38 Z Z" fill="rgb(0, 0, 0)" stroke="rgb(0, 0, 0)" stroke-linejoin="round" stroke-linecap="round" stroke-miterlimit="10" pointer-events="all"/></g></g><g data-cell-id="LPJZop9QfARrYuiBAiY1-6"><g><ellipse cx="55" cy="16" rx="15.499999999999998" ry="15.499999999999998" fill="#ffffff" stroke="#000000" pointer-events="all"/></g><g><g transform="translate(-0.5 -0.5)"><switch><foreignObject pointer-events="none" width="100%" height="100%" requiredFeatures="http://www.w3.org/TR/SVG11/feature#Extensibility" style="overflow: visible; text-align: left;"><div xmlns="http://www.w3.org/1999/xhtml" style="display: flex; align-items: unsafe center; justify-content: unsafe center; width: 29px; height: 1px; padding-top: 16px; margin-left: 40px;"><div data-drawio-colors="color: #000000; " style="box-sizing: border-box; font-size: 0px; text-align: center;"><div style="display: inline-block; font-size: 12px; font-family: Verdana; color: rgb(0, 0, 0); line-height: 1.2; pointer-events: all; white-space: normal; overflow-wrap: normal;"><font style="font-size: 25px ; line-height: 60%">A</font></div></div></div></foreignObject><text x="55" y="20" fill="#000000" font-family="&quot;Verdana&quot;" font-size="12px" text-anchor="middle">A</text></switch></g></g></g><g data-cell-id="LPJZop9QfARrYuiBAiY1-11"><g><path d="M 71 72 L 71 71.81 L 81.67 72.33 L 92.33 71.16 L 103 72.25 L 113.67 72.51 L 124.33 71.39 L 135 72 L 135.41 72 L 135.76 82 L 135.78 92 L 134.72 102 L 135.22 112 L 135.79 122 L 135.68 132 L 134.67 142 L 135.18 152 L 134.78 162 L 134.53 172 L 135.98 182 L 134.43 192 L 135 202 L 135 201.05 L 125.31 202.69 L 115.62 201.07 L 105.93 201.9 L 96.25 202.01 L 86.56 202.05 L 76.87 202" fill="none" stroke="rgb(0, 0, 0)" stroke-linejoin="round" stroke-linecap="round" stroke-miterlimit="10" pointer-events="stroke"/><path d="M 71.62 202 L 71.59 201.93 L 72.98 201.23 L 74.4 200.56 L 75.74 199.75 L 77.33 199.42 L 78.62 198.5 L 78.83 198.61 L 78.11 199.12 L 78.05 199.97 L 77.86 200.75 L 76.93 201.16 L 76.87 202 L 76.7 201.92 L 77.29 202.73 L 77.77 203.5 L 77.82 204.05 L 78.14 204.74 L 78.62 205.5 L 78.66 205.58 L 77.32 205.01 L 75.75 203.96 L 74.28 203.12 L 73.12 202.91 L 71.62 202 Z Z" fill="rgb(0, 0, 0)" stroke="rgb(0, 0, 0)" stroke-linejoin="round" stroke-linecap="round" stroke-miterlimit="10" pointer-events="all"/></g><g><g transform="translate(-0.5 -0.5)"><switch><foreignObject pointer-events="none" width="100%" height="100%" requiredFeatures="http://www.w3.org/TR/SVG11/feature#Extensibility" style="overflow: visible; text-align: left;"><div xmlns="http://www.w3.org/1999/xhtml" style="display: flex; align-items: unsafe flex-end; justify-content: unsafe center; width: 1px; height: 1px; padding-top: 69px; margin-left: 109px;"><div data-drawio-colors="color: rgb(0, 0, 0); background-color: rgb(255, 255, 255); " style="box-sizing: border-box; font-size: 0px; text-align: center;"><div style="display: inline-block; font-size: 11px; font-family: Helvetica; color: rgb(0, 0, 0); line-height: 1.2; pointer-events: all; background-color: rgb(255, 255, 255); white-space: nowrap;">[ x &gt; 1 ]</div></div></div></foreignObject><text x="109" y="69" fill="rgb(0, 0, 0)" font-family="&quot;Helvetica&quot;" font-size="11px" text-anchor="middle">[ x &gt; 1 ]</text></switch></g></g></g><g data-cell-id="LPJZop9QfARrYuiBAiY1-7"><g><path d="M 55 56 L 54.86 55.86 L 58.18 59.18 L 61.29 62.29 L 64.51 65.51 L 67.73 68.73 L 71 72 L 71.02 72.02 L 67.88 75.28 L 64.6 78.4 L 61.41 81.61 L 58.03 84.63 L 55 88 L 54.96 87.96 L 51.73 84.73 L 48.62 81.62 L 45.3 78.3 L 42.04 75.04 L 39 72 L 39.19 72.19 L 42.33 68.93 L 45.34 65.54 L 48.79 62.59 L 51.89 59.29 L 55 56 Z Z" fill="rgb(255, 255, 255)" stroke="#000000" stroke-linejoin="round" stroke-linecap="round" stroke-miterlimit="10" pointer-events="all"/></g></g><g data-cell-id="LPJZop9QfARrYuiBAiY1-8"><g><path d="M 55 31.5 L 55.07 31.5 L 55.12 35.5 L 54.88 39.51 L 54.94 43.51 L 54.7 47.51 L 55 51.52 L 54.89 51.52 L 54.85 48.41 L 54.93 45.31 L 55.06 42.21 L 54.84 39.1 L 55 36 L 54.67 36 L 55.02 38.73 L 54.95 41.45 L 54.98 44.18 L 55.02 46.91 L 55 49.63" fill="none" stroke="rgb(0, 0, 0)" stroke-linejoin="round" stroke-linecap="round" stroke-miterlimit="10" pointer-events="stroke"/><path d="M 55 54.88 L 54.94 54.85 L 54.59 53.63 L 53.71 52.13 L 52.63 50.55 L 52.14 49.25 L 51.5 47.88 L 51.45 47.78 L 52.24 48.31 L 52.96 48.7 L 53.61 48.94 L 54.4 49.49 L 55 49.63 L 55.14 49.91 L 55.7 49.28 L 56.44 49.01 L 57.14 48.66 L 57.69 48.01 L 58.5 47.88 L 58.78 48.02 L 57.61 49.19 L 57.31 50.79 L 56.55 52.16 L 55.78 53.52 L 55 54.88 Z Z" fill="rgb(0, 0, 0)" stroke="rgb(0, 0, 0)" stroke-linejoin="round" stroke-linecap="round" stroke-miterlimit="10" pointer-events="all"/></g></g><g data-cell-id="LPJZop9QfARrYuiBAiY1-9"><g><path d="M 54.5 186 L 54.71 186.21 L 57.65 189.15 L 60.96 192.46 L 64.19 195.69 L 67.11 198.61 L 70.5 202 L 70.54 202.04 L 67.48 205.38 L 64.19 208.49 L 60.9 211.6 L 57.93 215.03 L 54.5 218 L 54.55 218.05 L 51.45 214.95 L 48.33 211.83 L 44.73 208.23 L 41.51 205.01 L 38.5 202 L 38.61 202.11 L 41.66 198.76 L 44.77 195.47 L 47.91 192.21 L 51.45 189.35 L 54.5 186 Z Z" fill="rgb(255, 255, 255)" stroke="#000000" stroke-linejoin="round" stroke-linecap="round" stroke-miterlimit="10" pointer-events="all"/></g></g><g data-cell-id="LPJZop9QfARrYuiBAiY1-10"><g><path d="M 55 156 L 54.8 156 L 54.68 160 L 55.29 164 L 54.96 168 L 55.1 172 L 55 176 L 54.72 175.99 L 54.79 176.72 L 54.95 177.46 L 55.03 178.2 L 54.68 178.92 L 54.82 179.66" fill="none" stroke="rgb(0, 0, 0)" stroke-linejoin="round" stroke-linecap="round" stroke-miterlimit="10" pointer-events="stroke"/><path d="M 54.57 184.9 L 54.82 185.01 L 53.86 183.43 L 53.29 182.03 L 52.41 180.49 L 52.15 179.22 L 51.41 177.74 L 51.47 177.85 L 52.25 178.4 L 52.83 178.61 L 53.59 179.11 L 54.22 179.42 L 54.82 179.66 L 54.93 179.91 L 55.64 179.56 L 56.35 179.24 L 56.87 178.47 L 57.57 178.14 L 58.4 178.08 L 58.47 178.11 L 57.57 179.4 L 57.03 180.9 L 55.95 182.09 L 55.58 183.67 L 54.57 184.9 Z Z" fill="rgb(0, 0, 0)" stroke="rgb(0, 0, 0)" stroke-linejoin="round" stroke-linecap="round" stroke-miterlimit="10" pointer-events="all"/></g></g><g data-cell-id="GjajPZ4e6OUNxmuzYYEo-2"><g><ellipse cx="54.5" cy="255" rx="15.499999999999998" ry="15.499999999999998" fill="#ffffff" stroke="rgb(0, 0, 0)" pointer-events="all"/></g><g><g transform="translate(-0.5 -0.5)"><switch><foreignObject pointer-events="none" width="100%" height="100%" requiredFeatures="http://www.w3.org/TR/SVG11/feature#Extensibility" style="overflow: visible; text-align: left;"><div xmlns="http://www.w3.org/1999/xhtml" style="display: flex; align-items: unsafe center; justify-content: unsafe center; width: 29px; height: 1px; padding-top: 255px; margin-left: 40px;"><div data-drawio-colors="color: rgb(0, 0, 0); " style="box-sizing: border-box; font-size: 0px; text-align: center;"><div style="display: inline-block; font-size: 12px; font-family: Helvetica; color: rgb(0, 0, 0); line-height: 1.2; pointer-events: all; white-space: normal; overflow-wrap: normal;"><font style="font-size: 25px ; line-height: 60%">B</font></div></div></div></foreignObject><text x="54" y="259" fill="rgb(0, 0, 0)" font-family="&quot;Helvetica&quot;" font-size="12px" text-anchor="middle">B</text></switch></g></g></g></g></g></g><switch><g requiredFeatures="http://www.w3.org/TR/SVG11/feature#Extensibility"/><a transform="translate(0,-5)" xlink:href="https://www.drawio.com/doc/faq/svg-export-text-problems" target="_blank"><text text-anchor="middle" font-size="10px" x="50%" y="100%">Text is not SVG - cannot display</text></a></switch></svg>