<?xml version="1.0" encoding="UTF-8"?>
<!-- Do not edit this file with editors other than draw.io -->
<!DOCTYPE svg PUBLIC "-//W3C//DTD SVG 1.1//EN" "http://www.w3.org/Graphics/SVG/1.1/DTD/svg11.dtd">
<svg xmlns="http://www.w3.org/2000/svg" xmlns:xlink="http://www.w3.org/1999/xlink" version="1.1" width="200px" height="248px" viewBox="-0.5 -0.5 200 248" content="&lt;mxfile host=&quot;Electron&quot; agent=&quot;Mozilla/5.0 (Windows NT 10.0; Win64; x64) AppleWebKit/537.36 (KHTML, like Gecko) draw.io/24.7.17 Chrome/128.0.6613.36 Electron/32.0.1 Safari/537.36&quot; version=&quot;24.7.17&quot;&gt;&#10;  &lt;diagram id=&quot;FBozWONBrBzCR3XHtYKA&quot; name=&quot;Page-1&quot;&gt;&#10;    &lt;mxGraphModel dx=&quot;454&quot; dy=&quot;336&quot; grid=&quot;0&quot; gridSize=&quot;10&quot; guides=&quot;1&quot; tooltips=&quot;1&quot; connect=&quot;1&quot; arrows=&quot;1&quot; fold=&quot;1&quot; page=&quot;1&quot; pageScale=&quot;1&quot; pageWidth=&quot;1169&quot; pageHeight=&quot;827&quot; math=&quot;0&quot; shadow=&quot;0&quot;&gt;&#10;      &lt;root&gt;&#10;        &lt;mxCell id=&quot;0&quot; /&gt;&#10;        &lt;mxCell id=&quot;1&quot; parent=&quot;0&quot; /&gt;&#10;        &lt;mxCell id=&quot;LPJZop9QfARrYuiBAiY1-6&quot; value=&quot;&amp;lt;font style=&amp;quot;font-size: 25px ; line-height: 60%&amp;quot;&amp;gt;A&amp;lt;/font&amp;gt;&quot; style=&quot;ellipse;whiteSpace=wrap;html=1;aspect=fixed;rounded=0;shadow=0;comic=1;strokeWidth=1;fillColor=#FFFFFF;&quot; parent=&quot;1&quot; vertex=&quot;1&quot;&gt;&#10;          &lt;mxGeometry x=&quot;110&quot; y=&quot;64.5&quot; width=&quot;31&quot; height=&quot;31&quot; as=&quot;geometry&quot; /&gt;&#10;        &lt;/mxCell&gt;&#10;        &lt;mxCell id=&quot;LPJZop9QfARrYuiBAiY1-8&quot; value=&quot;&quot; style=&quot;edgeStyle=orthogonalEdgeStyle;rounded=0;orthogonalLoop=1;jettySize=auto;html=1;comic=1;entryX=0.5;entryY=1;entryDx=0;entryDy=0;&quot; parent=&quot;1&quot; source=&quot;LPJZop9QfARrYuiBAiY1-6&quot; edge=&quot;1&quot; target=&quot;mQIRjWtKKPVmW6aJwPdq-1&quot;&gt;&#10;          &lt;mxGeometry relative=&quot;1&quot; as=&quot;geometry&quot;&gt;&#10;            &lt;mxPoint x=&quot;140.99736646488486&quot; y=&quot;80.28571428571433&quot; as=&quot;sourcePoint&quot; /&gt;&#10;            &lt;mxPoint x=&quot;169.77586206896558&quot; y=&quot;80.27586206896558&quot; as=&quot;targetPoint&quot; /&gt;&#10;          &lt;/mxGeometry&gt;&#10;        &lt;/mxCell&gt;&#10;        &lt;mxCell id=&quot;mQIRjWtKKPVmW6aJwPdq-1&quot; value=&quot;&quot; style=&quot;rounded=0;whiteSpace=wrap;html=1;shadow=0;comic=1;strokeWidth=1;fillColor=#000000;rotation=-180;&quot; parent=&quot;1&quot; vertex=&quot;1&quot;&gt;&#10;          &lt;mxGeometry x=&quot;87&quot; y=&quot;120&quot; width=&quot;77&quot; height=&quot;10&quot; as=&quot;geometry&quot; /&gt;&#10;        &lt;/mxCell&gt;&#10;        &lt;mxCell id=&quot;mQIRjWtKKPVmW6aJwPdq-3&quot; style=&quot;rounded=0;orthogonalLoop=1;jettySize=auto;html=1;exitX=0.25;exitY=0;exitDx=0;exitDy=0;comic=1;&quot; parent=&quot;1&quot; source=&quot;mQIRjWtKKPVmW6aJwPdq-1&quot; target=&quot;mQIRjWtKKPVmW6aJwPdq-8&quot; edge=&quot;1&quot;&gt;&#10;          &lt;mxGeometry relative=&quot;1&quot; as=&quot;geometry&quot; /&gt;&#10;        &lt;/mxCell&gt;&#10;        &lt;mxCell id=&quot;mQIRjWtKKPVmW6aJwPdq-6&quot; value=&quot;&quot; style=&quot;edgeStyle=none;rounded=0;comic=1;orthogonalLoop=1;jettySize=auto;html=1;&quot; parent=&quot;1&quot; source=&quot;mQIRjWtKKPVmW6aJwPdq-2&quot; target=&quot;mQIRjWtKKPVmW6aJwPdq-13&quot; edge=&quot;1&quot;&gt;&#10;          &lt;mxGeometry relative=&quot;1&quot; as=&quot;geometry&quot;&gt;&#10;            &lt;mxPoint x=&quot;395.50012107530426&quot; y=&quot;53.56126434357583&quot; as=&quot;targetPoint&quot; /&gt;&#10;          &lt;/mxGeometry&gt;&#10;        &lt;/mxCell&gt;&#10;        &lt;mxCell id=&quot;mQIRjWtKKPVmW6aJwPdq-2&quot; value=&quot;wait for something&quot; style=&quot;rounded=1;whiteSpace=wrap;html=1;absoluteArcSize=1;arcSize=50;strokeWidth=1;shadow=0;comic=1;&quot; parent=&quot;1&quot; vertex=&quot;1&quot;&gt;&#10;          &lt;mxGeometry x=&quot;31&quot; y=&quot;160&quot; width=&quot;110&quot; height=&quot;39&quot; as=&quot;geometry&quot; /&gt;&#10;        &lt;/mxCell&gt;&#10;        &lt;mxCell id=&quot;mQIRjWtKKPVmW6aJwPdq-4&quot; value=&quot;&quot; style=&quot;verticalLabelPosition=bottom;verticalAlign=top;html=1;strokeWidth=1;shape=mxgraph.flowchart.or;rounded=0;shadow=0;comic=1;fillColor=#FFFFFF;comic=1&quot; parent=&quot;1&quot; vertex=&quot;1&quot;&gt;&#10;          &lt;mxGeometry x=&quot;159.5&quot; y=&quot;280&quot; width=&quot;31&quot; height=&quot;31&quot; as=&quot;geometry&quot; /&gt;&#10;        &lt;/mxCell&gt;&#10;        &lt;mxCell id=&quot;mQIRjWtKKPVmW6aJwPdq-10&quot; style=&quot;rounded=1;comic=1;orthogonalLoop=1;jettySize=auto;html=1;&quot; parent=&quot;1&quot; source=&quot;mQIRjWtKKPVmW6aJwPdq-8&quot; target=&quot;mQIRjWtKKPVmW6aJwPdq-4&quot; edge=&quot;1&quot;&gt;&#10;          &lt;mxGeometry relative=&quot;1&quot; as=&quot;geometry&quot; /&gt;&#10;        &lt;/mxCell&gt;&#10;        &lt;mxCell id=&quot;mQIRjWtKKPVmW6aJwPdq-11&quot; style=&quot;edgeStyle=none;rounded=1;comic=1;orthogonalLoop=1;jettySize=auto;html=1;exitX=0.75;exitY=0;exitDx=0;exitDy=0;&quot; parent=&quot;1&quot; source=&quot;mQIRjWtKKPVmW6aJwPdq-1&quot; target=&quot;mQIRjWtKKPVmW6aJwPdq-2&quot; edge=&quot;1&quot;&gt;&#10;          &lt;mxGeometry relative=&quot;1&quot; as=&quot;geometry&quot; /&gt;&#10;        &lt;/mxCell&gt;&#10;        &lt;mxCell id=&quot;mQIRjWtKKPVmW6aJwPdq-8&quot; value=&quot;do something else in the meantime&quot; style=&quot;rounded=1;whiteSpace=wrap;html=1;absoluteArcSize=1;arcSize=50;strokeWidth=1;shadow=0;comic=1;&quot; parent=&quot;1&quot; vertex=&quot;1&quot;&gt;&#10;          &lt;mxGeometry x=&quot;120&quot; y=&quot;210&quot; width=&quot;110&quot; height=&quot;39&quot; as=&quot;geometry&quot; /&gt;&#10;        &lt;/mxCell&gt;&#10;        &lt;mxCell id=&quot;mQIRjWtKKPVmW6aJwPdq-13&quot; value=&quot;&quot; style=&quot;ellipse;html=1;shape=endState;fillColor=#000000;strokeColor=#000000;comic=1&quot; parent=&quot;1&quot; vertex=&quot;1&quot;&gt;&#10;          &lt;mxGeometry x=&quot;70.50012107530426&quot; y=&quot;280.5012643435758&quot; width=&quot;31&quot; height=&quot;30&quot; as=&quot;geometry&quot; /&gt;&#10;        &lt;/mxCell&gt;&#10;      &lt;/root&gt;&#10;    &lt;/mxGraphModel&gt;&#10;  &lt;/diagram&gt;&#10;&lt;/mxfile&gt;&#10;"><defs/><g><g data-cell-id="0"><g data-cell-id="1"><g data-cell-id="LPJZop9QfARrYuiBAiY1-6"><g><ellipse cx="94.5" cy="15" rx="15.500000000000002" ry="15.500000000000002" fill="#ffffff" stroke="rgb(0, 0, 0)" pointer-events="all"/></g><g><g transform="translate(-0.5 -0.5)"><switch><foreignObject pointer-events="none" width="100%" height="100%" requiredFeatures="http://www.w3.org/TR/SVG11/feature#Extensibility" style="overflow: visible; text-align: left;"><div xmlns="http://www.w3.org/1999/xhtml" style="display: flex; align-items: unsafe center; justify-content: unsafe center; width: 29px; height: 1px; padding-top: 15px; margin-left: 80px;"><div data-drawio-colors="color: rgb(0, 0, 0); " style="box-sizing: border-box; font-size: 0px; text-align: center;"><div style="display: inline-block; font-size: 12px; font-family: Helvetica; color: rgb(0, 0, 0); line-height: 1.2; pointer-events: all; white-space: normal; overflow-wrap: normal;"><font style="font-size: 25px ; line-height: 60%">A</font></div></div></div></foreignObject><text x="95" y="19" fill="rgb(0, 0, 0)" font-family="&quot;Helvetica&quot;" font-size="12px" text-anchor="middle">A</text></switch></g></g></g><g data-cell-id="LPJZop9QfARrYuiBAiY1-8"><g><path d="M 94.5 30.5 L 94.43 30.5 L 94.34 34.5 L 94.7 38.51 L 94.78 42.51 L 94.27 46.52 L 94.52 50.52 L 94.44 50.52 L 94.45 47.42 L 94.5 44.31 L 94.71 41.21 L 94.52 38.1 L 94.52 35 L 94.68 35 L 94.62 37.73 L 94.72 40.45 L 94.81 43.18 L 94.32 45.91 L 94.51 48.63" fill="none" stroke="rgb(0, 0, 0)" stroke-linejoin="round" stroke-linecap="round" stroke-miterlimit="10" pointer-events="stroke"/><path d="M 94.5 53.88 L 94.23 53.75 L 93.89 52.52 L 93.29 51.17 L 92.29 49.62 L 91.87 48.36 L 91.01 46.88 L 91.07 46.99 L 91.63 47.07 L 92.34 47.43 L 93.16 48.03 L 93.72 48.1 L 94.51 48.63 L 94.62 48.86 L 95.25 48.37 L 95.9 47.91 L 96.68 47.72 L 97.19 47 L 98.01 46.89 L 98.11 46.94 L 97.14 48.2 L 96.77 49.77 L 96.17 51.22 L 95.35 52.56 L 94.5 53.88 Z Z" fill="rgb(0, 0, 0)" stroke="rgb(0, 0, 0)" stroke-linejoin="round" stroke-linecap="round" stroke-miterlimit="10" pointer-events="all"/></g></g><g data-cell-id="mQIRjWtKKPVmW6aJwPdq-1"><g><path d="M 56 55 L 56 55.21 L 65.63 54.48 L 75.25 54.08 L 84.88 54.99 L 94.5 55.94 L 104.13 54.03 L 113.75 54.32 L 123.38 54.04 L 133 55 L 132.97 55 L 133.32 57 L 132.83 59 L 132.75 61 L 132.81 63 L 133 65 L 133 65.93 L 123.38 65.08 L 113.75 64.52 L 104.13 64.07 L 94.5 65.27 L 84.88 65.23 L 75.25 64.77 L 65.63 64.5 L 56 65 L 56.26 65 L 56.1 63 L 56.13 61 L 55.86 59 L 55.85 57 L 56 55 L 56 55 Z Z" fill="#000000" stroke="rgb(0, 0, 0)" stroke-linejoin="round" stroke-linecap="round" stroke-miterlimit="10" transform="rotate(-180,94.5,60)" pointer-events="all"/></g></g><g data-cell-id="mQIRjWtKKPVmW6aJwPdq-3"><g><path d="M 113.75 65 L 114.07 65.1 L 116.8 74.31 L 118.66 83.26 L 122.15 92.71 L 125.49 102.11 L 127.06 110.97 L 130.35 120.35 L 132.82 129.49 L 136.22 138.91" fill="none" stroke="rgb(0, 0, 0)" stroke-linejoin="round" stroke-linecap="round" stroke-miterlimit="10" pointer-events="stroke"/><path d="M 137.75 143.93 L 137.71 143.9 L 136.63 142.76 L 135.59 141.66 L 134.36 140.38 L 133.52 139.47 L 132.36 138.25 L 132.4 138.46 L 133.11 138.24 L 133.89 138.43 L 134.71 138.82 L 135.48 138.99 L 136.22 138.91 L 136.17 138.86 L 136.69 138.27 L 137.26 137.73 L 138.14 137.52 L 138.52 136.78 L 139.06 136.21 L 138.84 136.18 L 138.51 137.71 L 138.6 139.31 L 138.58 140.9 L 137.96 142.38 L 137.75 143.93 Z Z" fill="rgb(0, 0, 0)" stroke="rgb(0, 0, 0)" stroke-linejoin="round" stroke-linecap="round" stroke-miterlimit="10" pointer-events="all"/></g></g><g data-cell-id="mQIRjWtKKPVmW6aJwPdq-6"><g><path d="M 55 134 L 54.12 134 L 54.13 143.39 L 55.96 152.78 L 54.01 162.17 L 55.99 171.57 L 55.28 180.96 L 54.41 190.35 L 54.21 199.74 L 55 209.13" fill="none" stroke="rgb(0, 0, 0)" stroke-linejoin="round" stroke-linecap="round" stroke-miterlimit="10" pointer-events="stroke"/><path d="M 55 214.38 L 55.05 214.41 L 54.01 212.84 L 53.34 211.45 L 52.94 210.2 L 52.37 208.87 L 51.5 207.38 L 51.57 207.52 L 52.29 207.92 L 52.88 208.04 L 53.66 208.56 L 54.26 208.71 L 55 209.13 L 55.01 209.15 L 55.84 209.06 L 56.31 208.25 L 57.09 208.06 L 57.83 207.79 L 58.5 207.38 L 58.43 207.35 L 57.82 208.79 L 57.28 210.27 L 56.62 211.69 L 55.57 212.92 L 55 214.38 Z Z" fill="rgb(0, 0, 0)" stroke="rgb(0, 0, 0)" stroke-linejoin="round" stroke-linecap="round" stroke-miterlimit="10" pointer-events="all"/></g></g><g data-cell-id="mQIRjWtKKPVmW6aJwPdq-2"><g><path d="M 19.5 95 L 19.5 95.53 L 29.64 95.93 L 39.79 94.47 L 49.93 95.68 L 60.07 94.2 L 70.21 95.44 L 80.36 95.81 L 90.5 95 Q 110 95 110 114.5 L 110 114.5 Q 110 134 90.5 134 L 90.5 134.75 L 80.36 134.89 L 70.21 135 L 60.07 133.6 L 49.93 133.8 L 39.79 133.68 L 29.64 134.22 L 19.5 134 Q 0 134 0 114.5 L 0 114.5 Q 0 95 19.5 95 L 19.5 95 Z Z" fill="rgb(255, 255, 255)" stroke="rgb(0, 0, 0)" stroke-linejoin="round" stroke-linecap="round" stroke-miterlimit="10" pointer-events="all"/></g><g><g transform="translate(-0.5 -0.5)"><switch><foreignObject pointer-events="none" width="100%" height="100%" requiredFeatures="http://www.w3.org/TR/SVG11/feature#Extensibility" style="overflow: visible; text-align: left;"><div xmlns="http://www.w3.org/1999/xhtml" style="display: flex; align-items: unsafe center; justify-content: unsafe center; width: 108px; height: 1px; padding-top: 115px; margin-left: 1px;"><div data-drawio-colors="color: rgb(0, 0, 0); " style="box-sizing: border-box; font-size: 0px; text-align: center;"><div style="display: inline-block; font-size: 12px; font-family: Helvetica; color: rgb(0, 0, 0); line-height: 1.2; pointer-events: all; white-space: normal; overflow-wrap: normal;">wait for something</div></div></div></foreignObject><text x="55" y="118" fill="rgb(0, 0, 0)" font-family="&quot;Helvetica&quot;" font-size="12px" text-anchor="middle">wait for something</text></switch></g></g></g><g data-cell-id="mQIRjWtKKPVmW6aJwPdq-4"><g><ellipse cx="144" cy="230.5" rx="15.500000000000002" ry="15.500000000000002" fill="#ffffff" stroke="rgb(0, 0, 0)" pointer-events="all"/><path d="M 132.93 241.57 L 133 241.64 L 137.35 237.14 L 141.7 232.63 L 146.07 228.14 L 150.87 224.09 L 155.07 219.43" fill="none" stroke="rgb(0, 0, 0)" stroke-linejoin="round" stroke-linecap="round" stroke-miterlimit="10" pointer-events="all"/><path d="M 132.93 219.43 L 132.95 219.45 L 137.36 223.86 L 141.95 228.45 L 146.1 232.6 L 150.59 237.09 L 155.07 241.57" fill="none" stroke="rgb(0, 0, 0)" stroke-linejoin="round" stroke-linecap="round" stroke-miterlimit="10" pointer-events="all"/></g></g><g data-cell-id="mQIRjWtKKPVmW6aJwPdq-10"><g><path d="M 144 184 L 144.11 184 L 144.31 188.93 L 143.92 193.85 L 143.83 198.78 L 144.08 203.71 L 144 208.63" fill="none" stroke="rgb(0, 0, 0)" stroke-linejoin="round" stroke-linecap="round" stroke-miterlimit="10" pointer-events="stroke"/><path d="M 144 213.88 L 144.23 214 L 143.45 212.56 L 142.54 211.05 L 141.92 209.69 L 141.28 208.32 L 140.5 206.88 L 140.48 206.84 L 141.3 207.43 L 141.9 207.59 L 142.64 208.02 L 143.18 208.04 L 144 208.63 L 144.13 208.88 L 144.77 208.41 L 145.44 208.02 L 146.14 207.67 L 146.69 207.01 L 147.5 206.88 L 147.69 206.98 L 146.8 208.28 L 146.08 209.67 L 145.54 211.15 L 144.73 212.5 L 144 213.88 Z Z" fill="rgb(0, 0, 0)" stroke="rgb(0, 0, 0)" stroke-linejoin="round" stroke-linecap="round" stroke-miterlimit="10" pointer-events="all"/></g></g><g data-cell-id="mQIRjWtKKPVmW6aJwPdq-11"><g><path d="M 75.25 65 L 75.23 64.99 L 73.35 69.85 L 71.04 74.53 L 69.08 79.36 L 67.45 84.32 L 65.39 89.11" fill="none" stroke="rgb(0, 0, 0)" stroke-linejoin="round" stroke-linecap="round" stroke-miterlimit="10" pointer-events="stroke"/><path d="M 63.4 93.97 L 63.45 93.97 L 63.21 92.4 L 62.97 90.83 L 63.07 89.28 L 62.98 87.73 L 62.81 86.16 L 63.01 86.34 L 63.17 86.62 L 63.71 87.22 L 64.57 88.11 L 65.08 88.7 L 65.39 89.11 L 65.38 88.98 L 66.17 89.05 L 66.95 88.98 L 67.73 88.95 L 68.5 88.7 L 69.29 88.81 L 69.16 88.66 L 68.12 89.85 L 67.09 91.05 L 65.84 92 L 64.77 93.15 L 63.4 93.97 Z Z" fill="rgb(0, 0, 0)" stroke="rgb(0, 0, 0)" stroke-linejoin="round" stroke-linecap="round" stroke-miterlimit="10" pointer-events="all"/></g></g><g data-cell-id="mQIRjWtKKPVmW6aJwPdq-8"><g><path d="M 108.5 145 L 108.5 144.22 L 118.64 144.14 L 128.79 145.41 L 138.93 145.92 L 149.07 144.95 L 159.21 145.83 L 169.36 145.39 L 179.5 145 Q 199 145 199 164.5 L 199 164.5 Q 199 184 179.5 184 L 179.5 183.85 L 169.36 183.26 L 159.21 183.85 L 149.07 184.06 L 138.93 183.15 L 128.79 183.51 L 118.64 184.6 L 108.5 184 Q 89 184 89 164.5 L 89 164.5 Q 89 145 108.5 145 L 108.5 145 Z Z" fill="rgb(255, 255, 255)" stroke="rgb(0, 0, 0)" stroke-linejoin="round" stroke-linecap="round" stroke-miterlimit="10" pointer-events="all"/></g><g><g transform="translate(-0.5 -0.5)"><switch><foreignObject pointer-events="none" width="100%" height="100%" requiredFeatures="http://www.w3.org/TR/SVG11/feature#Extensibility" style="overflow: visible; text-align: left;"><div xmlns="http://www.w3.org/1999/xhtml" style="display: flex; align-items: unsafe center; justify-content: unsafe center; width: 108px; height: 1px; padding-top: 165px; margin-left: 90px;"><div data-drawio-colors="color: rgb(0, 0, 0); " style="box-sizing: border-box; font-size: 0px; text-align: center;"><div style="display: inline-block; font-size: 12px; font-family: Helvetica; color: rgb(0, 0, 0); line-height: 1.2; pointer-events: all; white-space: normal; overflow-wrap: normal;">do something else in the meantime</div></div></div></foreignObject><text x="144" y="168" fill="rgb(0, 0, 0)" font-family="&quot;Helvetica&quot;" font-size="12px" text-anchor="middle">do something else...</text></switch></g></g></g><g data-cell-id="mQIRjWtKKPVmW6aJwPdq-13"><g><ellipse cx="55" cy="230.5" rx="11.500000000000002" ry="11" fill="#000000" stroke="#000000" pointer-events="all"/><ellipse cx="55" cy="230.5" rx="15.500000000000002" ry="15" fill="none" stroke="#000000" pointer-events="all"/></g></g></g></g></g><switch><g requiredFeatures="http://www.w3.org/TR/SVG11/feature#Extensibility"/><a transform="translate(0,-5)" xlink:href="https://www.drawio.com/doc/faq/svg-export-text-problems" target="_blank"><text text-anchor="middle" font-size="10px" x="50%" y="100%">Text is not SVG - cannot display</text></a></switch></svg>