<?xml version="1.0" encoding="UTF-8"?>
<!-- Do not edit this file with editors other than draw.io -->
<!DOCTYPE svg PUBLIC "-//W3C//DTD SVG 1.1//EN" "http://www.w3.org/Graphics/SVG/1.1/DTD/svg11.dtd">
<svg xmlns="http://www.w3.org/2000/svg" xmlns:xlink="http://www.w3.org/1999/xlink" version="1.1" width="111px" height="151px" viewBox="-0.5 -0.5 111 151" content="&lt;mxfile host=&quot;Electron&quot; agent=&quot;Mozilla/5.0 (Windows NT 10.0; Win64; x64) AppleWebKit/537.36 (KHTML, like Gecko) draw.io/24.7.17 Chrome/128.0.6613.36 Electron/32.0.1 Safari/537.36&quot; version=&quot;24.7.17&quot;&gt;&#10;  &lt;diagram id=&quot;FBozWONBrBzCR3XHtYKA&quot; name=&quot;Page-1&quot;&gt;&#10;    &lt;mxGraphModel dx=&quot;954&quot; dy=&quot;705&quot; grid=&quot;0&quot; gridSize=&quot;10&quot; guides=&quot;1&quot; tooltips=&quot;1&quot; connect=&quot;1&quot; arrows=&quot;1&quot; fold=&quot;1&quot; page=&quot;1&quot; pageScale=&quot;1&quot; pageWidth=&quot;1169&quot; pageHeight=&quot;827&quot; math=&quot;0&quot; shadow=&quot;0&quot;&gt;&#10;      &lt;root&gt;&#10;        &lt;mxCell id=&quot;0&quot; /&gt;&#10;        &lt;mxCell id=&quot;1&quot; parent=&quot;0&quot; /&gt;&#10;        &lt;mxCell id=&quot;LPJZop9QfARrYuiBAiY1-4&quot; value=&quot;&quot; style=&quot;ellipse;html=1;shape=endState;fillColor=#000000;strokeColor=#000000;comic=1&quot; parent=&quot;1&quot; vertex=&quot;1&quot;&gt;&#10;          &lt;mxGeometry x=&quot;84.5&quot; y=&quot;190&quot; width=&quot;31&quot; height=&quot;30&quot; as=&quot;geometry&quot; /&gt;&#10;        &lt;/mxCell&gt;&#10;        &lt;mxCell id=&quot;LPJZop9QfARrYuiBAiY1-5&quot; value=&quot;&quot; style=&quot;edgeStyle=orthogonalEdgeStyle;rounded=0;orthogonalLoop=1;jettySize=auto;html=1;comic=1;&quot; parent=&quot;1&quot; target=&quot;LPJZop9QfARrYuiBAiY1-4&quot; edge=&quot;1&quot; source=&quot;jXPq8pDVGJahaFWOIgdf-1&quot;&gt;&#10;          &lt;mxGeometry relative=&quot;1&quot; as=&quot;geometry&quot;&gt;&#10;            &lt;mxPoint x=&quot;280&quot; y=&quot;80&quot; as=&quot;sourcePoint&quot; /&gt;&#10;          &lt;/mxGeometry&gt;&#10;        &lt;/mxCell&gt;&#10;        &lt;mxCell id=&quot;jXPq8pDVGJahaFWOIgdf-1&quot; value=&quot;trigger greet&quot; style=&quot;html=1;shape=mxgraph.sysml.sendSigAct;strokeWidth=1;whiteSpace=wrap;align=center;shadow=0;comic=1;fontFamily=Helvetica;fontSize=12;fontColor=#000000;strokeColor=#000000;fillColor=#ffffff;&quot; parent=&quot;1&quot; vertex=&quot;1&quot;&gt;&#10;          &lt;mxGeometry x=&quot;45&quot; y=&quot;120&quot; width=&quot;110&quot; height=&quot;40&quot; as=&quot;geometry&quot; /&gt;&#10;        &lt;/mxCell&gt;&#10;        &lt;mxCell id=&quot;iEcYatKDy0NlcCvRv_Xf-1&quot; value=&quot;&quot; style=&quot;edgeStyle=orthogonalEdgeStyle;rounded=0;orthogonalLoop=1;jettySize=auto;html=1;&quot; edge=&quot;1&quot; parent=&quot;1&quot; source=&quot;jXPq8pDVGJahaFWOIgdf-2&quot; target=&quot;jXPq8pDVGJahaFWOIgdf-1&quot;&gt;&#10;          &lt;mxGeometry relative=&quot;1&quot; as=&quot;geometry&quot; /&gt;&#10;        &lt;/mxCell&gt;&#10;        &lt;mxCell id=&quot;jXPq8pDVGJahaFWOIgdf-2&quot; value=&quot;&quot; style=&quot;ellipse;whiteSpace=wrap;html=1;rounded=0;shadow=0;comic=0;labelBackgroundColor=none;strokeColor=#000000;strokeWidth=1;fillColor=#000000;fontFamily=Verdana;fontSize=12;fontColor=#000000;align=center;comic=1&quot; parent=&quot;1&quot; vertex=&quot;1&quot;&gt;&#10;          &lt;mxGeometry x=&quot;90&quot; y=&quot;70&quot; width=&quot;20&quot; height=&quot;20&quot; as=&quot;geometry&quot; /&gt;&#10;        &lt;/mxCell&gt;&#10;      &lt;/root&gt;&#10;    &lt;/mxGraphModel&gt;&#10;  &lt;/diagram&gt;&#10;&lt;/mxfile&gt;&#10;"><defs/><g><g data-cell-id="0"><g data-cell-id="1"><g data-cell-id="LPJZop9QfARrYuiBAiY1-4"><g><ellipse cx="55" cy="135" rx="11.5" ry="11" fill="#000000" stroke="#000000" pointer-events="all"/><ellipse cx="55" cy="135" rx="15.5" ry="15" fill="none" stroke="#000000" pointer-events="all"/></g></g><g data-cell-id="LPJZop9QfARrYuiBAiY1-5"><g><path d="M 55 90 L 54.68 90 L 54.88 94 L 55.3 98 L 55 102 L 54.86 106 L 55 110 L 54.82 110 L 55.1 108 L 54.91 106 L 54.7 104 L 55.2 102 L 55 100 L 54.7 100 L 54.9 102.73 L 55.13 105.45 L 55.01 108.18 L 55.24 110.91 L 55 113.63" fill="none" stroke="rgb(0, 0, 0)" stroke-linejoin="round" stroke-linecap="round" stroke-miterlimit="10" pointer-events="stroke"/><path d="M 55 118.88 L 54.99 118.88 L 54.35 117.51 L 53.45 116.01 L 52.65 114.56 L 52.48 113.42 L 51.5 111.88 L 51.53 111.95 L 52.32 112.48 L 53 112.78 L 53.59 112.9 L 54.18 113.05 L 55 113.63 L 54.93 113.49 L 55.57 113.02 L 56.54 113.21 L 56.96 112.3 L 57.79 112.22 L 58.5 111.88 L 58.36 111.81 L 57.58 113.17 L 57.02 114.64 L 56.52 116.14 L 55.47 117.37 L 55 118.88 Z Z" fill="rgb(0, 0, 0)" stroke="rgb(0, 0, 0)" stroke-linejoin="round" stroke-linecap="round" stroke-miterlimit="10" pointer-events="all"/></g></g><g data-cell-id="jXPq8pDVGJahaFWOIgdf-1"><g><path d="M 0 50 L 0 49.07 L 9.8 50.31 L 19.6 50.83 L 29.4 50.58 L 39.2 50.33 L 49 49.87 L 58.8 49.62 L 68.6 49.13 L 78.4 49.67 L 88.2 50.68 L 98 50 L 98.12 50.07 L 100.54 54.08 L 102.51 57.83 L 105.42 62.13 L 107.6 66 L 110 70 L 109.82 69.89 L 107.42 73.89 L 105.08 77.93 L 102.57 81.86 L 100.37 85.98 L 98 90 L 98 90.9 L 88.2 89.54 L 78.4 90.7 L 68.6 89.69 L 58.8 89.47 L 49 89.66 L 39.2 89.26 L 29.4 90.12 L 19.6 90.79 L 9.8 90.17 L 0 90 L -0.04 90 L -0.27 82 L 0.09 74 L 0.1 66 L -0.25 58 L 0 50 Z Z" fill="#ffffff" stroke="#000000" stroke-linejoin="round" stroke-linecap="round" stroke-miterlimit="10" pointer-events="all"/></g><g><g transform="translate(-0.5 -0.5)"><switch><foreignObject pointer-events="none" width="100%" height="100%" requiredFeatures="http://www.w3.org/TR/SVG11/feature#Extensibility" style="overflow: visible; text-align: left;"><div xmlns="http://www.w3.org/1999/xhtml" style="display: flex; align-items: unsafe center; justify-content: unsafe center; width: 108px; height: 1px; padding-top: 70px; margin-left: 1px;"><div data-drawio-colors="color: #000000; " style="box-sizing: border-box; font-size: 0px; text-align: center;"><div style="display: inline-block; font-size: 12px; font-family: Helvetica; color: rgb(0, 0, 0); line-height: 1.2; pointer-events: all; white-space: normal; overflow-wrap: normal;">trigger greet</div></div></div></foreignObject><text x="55" y="74" fill="#000000" font-family="&quot;Helvetica&quot;" font-size="12px" text-anchor="middle">trigger greet</text></switch></g></g></g><g data-cell-id="iEcYatKDy0NlcCvRv_Xf-1"><g><path d="M 55 20 L 55 40 L 55 30 L 55 43.63" fill="none" stroke="rgb(0, 0, 0)" stroke-miterlimit="10" pointer-events="stroke"/><path d="M 55 48.88 L 51.5 41.88 L 55 43.63 L 58.5 41.88 Z" fill="rgb(0, 0, 0)" stroke="rgb(0, 0, 0)" stroke-miterlimit="10" pointer-events="all"/></g></g><g data-cell-id="jXPq8pDVGJahaFWOIgdf-2"><g><ellipse cx="55" cy="10" rx="10" ry="10" fill="#000000" stroke="#000000" pointer-events="all"/></g></g></g></g></g><switch><g requiredFeatures="http://www.w3.org/TR/SVG11/feature#Extensibility"/><a transform="translate(0,-5)" xlink:href="https://www.drawio.com/doc/faq/svg-export-text-problems" target="_blank"><text text-anchor="middle" font-size="10px" x="50%" y="100%">Text is not SVG - cannot display</text></a></switch></svg>